<?xml version="1.0" encoding="UTF-8" standalone="no"?><!DOCTYPE svg PUBLIC "-//W3C//DTD SVG 1.1//EN" "http://www.w3.org/Graphics/SVG/1.1/DTD/svg11.dtd"><svg width="100%" height="100%" viewBox="0 0 400 134" version="1.1" xmlns="http://www.w3.org/2000/svg" xmlns:xlink="http://www.w3.org/1999/xlink" xml:space="preserve" xmlns:serif="http://www.serif.com/" style="fill-rule:evenodd;clip-rule:evenodd;stroke-linejoin:round;stroke-miterlimit:1.41421;"><rect id="logo_400x133" x="0" y="0.135" width="400" height="133" style="fill:none;"/><g><path d="M366.667,54.064l-13.45,38.435c-3.925,11.116 -7.634,15.33 -17.375,15.33c-3.708,0 -6.617,-0.508 -8.508,-0.945l1.383,-10.753c1.234,0.146 3.417,0.363 5.306,0.363c2.326,0 3.708,-0.871 4.434,-3.269l0.292,-0.943l-13.304,-38.218l15.341,0l5.234,23.83l0.289,0l5.091,-23.83l15.267,0Z" style="fill:#1a86fd;"/><path d="M231.243,92.643l-11.995,0l-1.891,-4.359c-2.397,3.197 -6.106,5.231 -11.267,5.231c-8.362,0 -12.725,-4.795 -12.725,-12.787l0,-26.665l15.197,0l0,23.687c0,2.761 0.872,4.14 3.198,4.14c1.817,0 3.634,-1.016 4.434,-1.961l0,-25.866l15.049,0l0,38.58Z" style="fill:#1a86fd;"/><path d="M322.543,92.643l-13.158,0l-1.017,-4.432c-1.891,2.616 -5.672,5.303 -11.415,5.303c-10.251,0 -15.632,-7.119 -15.632,-20.053c0,-14.094 8.215,-20.268 16.941,-20.268c3.343,0 6.689,1.234 9.16,3.341l0,-16.203l15.121,0l0,52.312Zm-15.121,-25.647c-1.091,-1.162 -2.837,-2.033 -4.945,-2.033c-3.415,0 -5.161,2.761 -5.161,8.355c0,5.085 1.235,8.646 5.161,8.646c2.037,0 3.854,-0.728 4.945,-1.89l0,-13.078Z" style="fill:#1a86fd;"/><path d="M277.04,92.643l-13.158,0l-1.02,-4.432c-1.889,2.616 -5.669,5.303 -11.412,5.303c-10.252,0 -15.632,-7.119 -15.632,-20.053c0,-14.094 8.215,-20.268 16.94,-20.268c3.344,0 6.689,1.234 9.161,3.341l0,-16.203l15.121,0l0,52.312Zm-15.121,-25.647c-1.092,-1.162 -2.837,-2.033 -4.946,-2.033c-3.415,0 -5.16,2.761 -5.16,8.355c0,5.085 1.234,8.646 5.16,8.646c2.037,0 3.854,-0.728 4.946,-1.89l0,-13.078Z" style="fill:#1a86fd;"/><path d="M167.056,92.467l-22.175,0l0,-52.312l23.047,0c10.616,0 19.12,3.997 19.12,13.731c0,5.45 -2.908,10.027 -8.578,11.19l0,0.145c7.27,1.234 10.469,6.756 10.469,12.133c0,11.915 -8.868,15.113 -21.883,15.113Zm-6.398,-21.435l0,9.3l6.907,0c3.417,0 5.308,-2.033 5.308,-4.794c0,-2.907 -2.254,-4.506 -5.528,-4.506l-6.687,0Zm5.961,-18.817l-5.961,0l0,7.919l5.744,0c2.98,0 5.451,-0.943 5.451,-4.141c0,-2.833 -1.962,-3.778 -5.234,-3.778Z" style="fill:#1a86fd;"/><g><g><g><clipPath id="_clip1"><path d="M73.019,18.747c2.394,-1.376 5.344,-1.376 7.737,0c8.264,4.75 27.555,15.838 35.818,20.588c2.394,1.376 3.868,3.919 3.868,6.671c0,9.499 0,31.675 0,41.174c0,2.752 -1.474,5.295 -3.868,6.671c-8.263,4.75 -27.554,15.838 -35.818,20.587c-2.393,1.376 -5.343,1.376 -7.737,0c-8.263,-4.749 -27.554,-15.837 -35.817,-20.587c-2.394,-1.376 -3.869,-3.919 -3.869,-6.671c0,-9.499 0,-31.675 0,-41.174c0,-2.752 1.475,-5.295 3.869,-6.671c8.263,-4.75 27.554,-15.838 35.817,-20.588Z"/></clipPath><g clip-path="url(#_clip1)"><path d="M73.019,18.747c2.394,-1.376 5.344,-1.376 7.737,0c8.264,4.75 27.555,15.838 35.818,20.588c2.394,1.376 3.868,3.919 3.868,6.671c0,9.499 0,31.675 0,41.174c0,2.752 -1.474,5.295 -3.868,6.671c-8.263,4.75 -27.554,15.838 -35.818,20.587c-2.393,1.376 -5.343,1.376 -7.737,0c-8.263,-4.749 -27.554,-15.837 -35.817,-20.587c-2.394,-1.376 -3.869,-3.919 -3.869,-6.671c0,-9.499 0,-31.675 0,-41.174c0,-2.752 1.475,-5.295 3.869,-6.671c8.263,-4.75 27.554,-15.838 35.817,-20.588Z" style="fill:#0da7fe;"/><path d="M33.333,91.633l22.623,-25.04l20.932,50.069l-43.555,-25.029Z" style="fill:#1a67fd;"/><path d="M55.956,66.593l-22.317,-25.21l-0.306,50.25l22.623,-25.04Z" style="fill:#0da7fe;"/><path d="M55.956,66.593l20.932,-50.069l-43.249,24.859l22.317,25.21Z" style="fill:#05bbff;"/><path d="M76.888,16.524l43.554,75.103l-64.486,-25.034" style="fill:#00c9ff;"/><path d="M76.888,116.747l43.554,-25.114l-64.486,-25.04l20.932,50.154Z" style="fill:#1a86fd;"/><path d="M120.442,91.627l0,-50.069l-43.554,-25.034l43.554,75.103Z" style="fill:#05bbff;"/></g></g><g><path d="M86.094,62.368l5.529,5.504l-2.744,2.732l-2.785,2.772l-15.565,15.496l-5.529,-5.504l15.565,-15.496l-15.565,-15.496l5.529,-5.504l15.565,15.496Z" style="fill:#1a67fd;fill-opacity:0.5;"/><g><path d="M91.623,65.402l-5.529,-5.505l-21.094,21.001l5.529,5.504l21.094,-21Z" style="fill:#d6ffff;"/><path d="M70.529,44.401l-5.529,5.505l21.094,21l5.529,-5.504l-21.094,-21.001Z" style="fill:#d6ffff;"/></g></g></g></g></g></svg>