<?xml version="1.0" encoding="utf-8"?>
<!-- Generator: Adobe Illustrator 16.0.0, SVG Export Plug-In . SVG Version: 6.00 Build 0)  -->
<!DOCTYPE svg PUBLIC "-//W3C//DTD SVG 1.1//EN" "http://www.w3.org/Graphics/SVG/1.1/DTD/svg11.dtd" [
	<!ENTITY ns_flows "http://ns.adobe.com/Flows/1.0/">
	<!ENTITY ns_extend "http://ns.adobe.com/Extensibility/1.0/">
	<!ENTITY ns_ai "http://ns.adobe.com/AdobeIllustrator/10.0/">
	<!ENTITY ns_graphs "http://ns.adobe.com/Graphs/1.0/">
]>
<svg version="1.1" id="Warstwa_1" xmlns:x="&ns_extend;" xmlns:i="&ns_ai;" xmlns:graph="&ns_graphs;"
	 xmlns="http://www.w3.org/2000/svg" xmlns:xlink="http://www.w3.org/1999/xlink" xmlns:a="http://ns.adobe.com/AdobeSVGViewerExtensions/3.0/"
	 x="0px" y="0px" width="2158.479px" height="595.278px" viewBox="0 0 2158.479 595.278"
	 enable-background="new 0 0 2158.479 595.278" xml:space="preserve">
<g>
	<g>
		<path fill="#548998" d="M704.112,379.547v25.996c6.334,3.498,12.668,5.595,18.975,6.374c6.322,0.767,13.451,1.173,21.358,1.173
			c1.963,0,4.842-0.406,8.594-1.173c3.753-0.779,7.612-2.323,11.553-4.679c3.954-2.328,7.424-5.418,10.396-9.308
			c2.958-3.899,4.641-9.128,5.03-15.762c0.402-8.554-1.884-15.075-6.82-19.542c-4.922-4.465-11.147-8.149-18.625-11.08
			c-7.505-2.921-15.682-5.647-24.572-8.205c-8.862-2.529-17.161-5.971-24.841-10.288c-7.692-4.317-14.108-10.289-19.245-17.94
			c-5.138-7.652-7.692-18.13-7.692-31.486c0-11.362,2.165-21.088,6.482-29.115c4.316-8.03,9.791-14.619,16.474-19.731
			c6.672-5.094,13.922-8.822,21.762-11.178c7.854-2.338,15.305-3.508,22.365-3.508c2.744,0,6.765,0.284,12.052,0.874
			c5.297,0.565,10.986,1.656,17.066,3.227c6.078,1.574,12.077,3.822,17.968,6.765c5.863,2.946,10.961,6.778,15.278,11.474v47.056
			h-32.938v-26.683c-4.357-2.637-9.428-4.355-15.171-5.109c-5.729-0.752-9.979-1.13-12.762-1.13c-9.134,0-16.947,2.301-23.47,6.915
			c-6.536,4.612-9.401,11.738-8.634,21.357c0.807,6.521,3.86,11.726,9.186,15.572c5.326,3.848,11.741,7.318,19.219,10.383
			c7.505,3.08,15.494,6.186,23.992,9.32c8.46,3.135,16.368,7.264,23.657,12.358c7.317,5.087,13.423,11.568,18.346,19.409
			c4.921,7.842,7.395,17.858,7.395,30.018c0,5.891-1.169,12.736-3.522,20.604c-2.34,7.841-6.28,15.278-11.753,22.34
			c-5.516,7.074-12.953,12.963-22.366,17.657c-9.414,4.719-21.385,7.061-35.896,7.061c-5.502,0-11.579-0.402-18.236-1.17
			c-6.685-0.794-13.247-2.084-19.718-3.832c-6.481-1.763-12.748-4.118-18.826-7.047c-6.095-2.96-11.097-6.563-15.01-10.883v-47.084
			H704.112z"/>
		<path fill="#548998" d="M1039.142,309.532l-171.235,65.307c6.671,11.596,15.979,20.877,27.949,27.816
			c11.969,6.952,25.593,10.436,40.897,10.436c10.585,0,20.483-1.912,29.709-5.729c9.226-3.808,17.162-8.959,23.832-15.468
			c3.537,4.345,7.154,8.742,10.893,13.246c3.713,4.508,7.532,8.932,11.473,13.234c-10.207,9.807-21.68,17.458-34.416,22.958
			c-12.75,5.488-26.589,8.231-41.49,8.231c-16.098,0-31.188-3.037-45.296-9.12c-14.135-6.078-26.495-14.31-37.08-24.718
			c-10.597-10.396-18.937-22.553-25.015-36.475c-6.079-13.932-9.119-28.913-9.119-45.026c0-15.682,3.04-30.584,9.119-44.732
			c6.078-14.108,14.418-26.359,25.015-36.77c10.585-10.368,22.945-18.613,37.08-24.703c14.108-6.081,29.198-9.106,45.296-9.106
			c12.145,0,23.631,2.246,34.417,6.75s20.589,10.801,29.44,18.829c8.809,8.068,16.555,17.671,23.225,28.834
			C1030.507,284.504,1035.617,296.566,1039.142,309.532z M936.269,255.386c-12.251,0-23.562,2.353-33.823,7.007
			c-10.302,4.666-18.991,10.894-26.119,18.72c-7.127,7.773-12.48,16.718-16.018,26.872c-3.564,10.139-4.747,20.834-3.591,32.116
			c22.555-8.62,45.109-17.134,67.676-25.58c22.539-8.446,45.107-16.959,67.662-25.595c-5.93-10.017-13.759-18.1-23.442-24.272
			C958.903,258.481,948.145,255.386,936.269,255.386z"/>
		<path fill="#548998" d="M1226.835,224.196h74.725v36.474h-44.732v212.267c0,17.592-2.932,33.595-8.823,48.067
			c-5.862,14.472-14.026,26.979-24.423,37.549c-10.396,10.545-22.555,18.737-36.446,24.626c-13.946,5.852-28.769,8.78-44.45,8.78
			c-17.645-0.401-34.631-3.924-50.891-10.583c-16.287-6.683-30.125-14.927-41.49-24.721l24.719-29.424
			c8.232,8.177,18.238,14.94,29.992,20.269c11.78,5.299,23.926,7.988,36.501,7.988c10.961,0,21.276-2.18,30.878-6.524
			c9.617-4.37,17.969-10.396,25.016-18.114c7.061-7.707,12.656-16.813,16.758-27.261c4.141-10.478,6.188-22.057,6.188-34.698
			v-41.546c0.779-3.147,1.37-6.335,1.762-9.479c0.402-3.162,0.98-6.324,1.761-9.496c-2.341,4.314-5.971,8.932-10.88,13.839
			s-10.88,9.308-17.941,13.247c-7.061,3.914-15.197,7.153-24.424,9.711c-9.227,2.527-19.299,3.805-30.314,3.805
			c-16.447,0-31.859-3.038-46.169-9.119c-14.323-6.08-26.696-14.337-37.066-24.705c-10.396-10.383-18.64-22.447-24.72-36.205
			c-6.079-13.705-9.118-28.418-9.118-44.1c0-15.707,3.039-30.53,9.118-44.462c6.08-13.906,14.324-26.185,24.72-36.757
			c10.37-10.583,22.743-19.028,37.066-25.323c14.31-6.24,29.722-9.387,46.169-9.387c11.016,0,21.277,1.559,30.906,4.691
			c9.616,3.15,18.143,7.074,25.607,11.771c7.451,4.706,13.611,9.614,18.533,14.713c4.881,5.109,7.922,9.614,9.118,13.543
			c0-6.295,0.296-12.749,0.86-19.407C1225.948,237.525,1226.433,230.879,1226.835,224.196z M1059.718,333.928
			c0,11.271,2.059,21.638,6.214,31.135c4.114,9.521,9.724,17.751,16.825,24.73c7.088,6.982,15.533,12.525,25.392,16.584
			c9.845,4.091,20.482,6.12,31.9,6.12c11.419,0,22.03-2.029,31.901-6.12c9.831-4.059,18.305-9.602,25.365-16.584
			c7.113-6.979,12.71-15.209,16.838-24.73c4.129-9.497,6.201-19.863,6.201-31.135c0-10.852-2.072-21.115-6.201-30.826
			c-4.128-9.708-9.725-18.033-16.838-25.015c-7.061-6.992-15.534-12.507-25.365-16.568c-9.871-4.089-20.482-6.133-31.901-6.133
			c-11.418,0-22.056,2.044-31.9,6.133c-9.858,4.061-18.304,9.576-25.392,16.568c-7.102,6.982-12.711,15.306-16.825,25.015
			C1061.776,312.813,1059.718,323.077,1059.718,333.928z"/>
	</g>
	<g>
		<path fill="#8AB5C5" d="M1343.546,224.196v-84.149c0-21.586,3.041-40.776,9.119-57.656c6.079-16.853,14.324-30.988,24.719-42.365
			c10.397-11.364,22.555-20.106,36.502-26.188c13.893-6.078,28.902-9.519,44.973-10.286v16.477c-13.326,0-25.969,2.849-37.912,8.498
			c-11.996,5.69-22.473,13.583-31.484,23.752c-9.037,10.167-16.192,22.607-21.492,37.28c-5.285,14.673-7.921,31.175-7.921,49.573
			v85.063h74.736v16.476h-74.736v187.693h55.881v16.477h-108.265v-16.477h35.881V240.672V224.196z"/>
		<path fill="#8AB5C5" d="M1420.637,334.224c0-15.682,2.934-30.502,8.822-44.409c5.892-13.919,14.014-26.105,24.425-36.501
			c10.381-10.381,22.542-18.613,36.473-24.691c13.907-6.108,28.917-9.146,45.027-9.146c11.755,0,22.93,1.681,33.516,5.015
			c10.597,3.336,20.308,7.948,29.13,13.839s16.462,12.736,22.958,20.602c6.457,7.841,11.472,16.073,14.995,24.693
			c0-9.818,0.188-19.606,0.577-29.412c0.403-9.803,0.983-19.811,1.79-30.02h12.346v204.169h43.548v16.477h-58.261v-27.637v-32.372
			c-3.523,8.633-8.432,16.878-14.699,24.718c-6.294,7.856-13.839,14.714-22.661,20.605c-8.822,5.891-18.533,10.503-29.118,13.813
			c-10.612,3.334-21.989,5.002-34.12,5.002c-16.11,0-31.12-3.038-45.027-9.119c-13.931-6.08-26.092-14.202-36.473-24.408
			c-10.411-10.195-18.533-22.271-24.425-36.193C1423.57,365.319,1420.637,350.337,1420.637,334.224z M1437.099,334.521
			c0,13.689,2.569,26.493,7.666,38.45c5.082,11.93,12.05,22.285,20.871,31.08c8.825,8.782,19.219,15.75,31.19,20.821
			c11.969,5.095,24.798,7.624,38.558,7.624c13.705,0,26.658-2.529,38.813-7.624c12.159-5.071,22.744-12.039,31.768-20.821
			c9.024-8.795,16.083-19.15,21.183-31.08c5.097-11.957,7.651-24.761,7.651-38.45c0-13.692-2.555-26.494-7.651-38.398
			c-5.1-11.955-12.158-22.435-21.183-31.401c-9.023-8.999-19.608-16.033-31.768-21.115c-12.155-5.087-25.108-7.64-38.813-7.64
			c-13.76,0-26.589,2.553-38.558,7.64c-11.972,5.082-22.365,12.116-31.19,21.115c-8.821,8.966-15.789,19.447-20.871,31.401
			C1439.668,308.027,1437.099,320.829,1437.099,334.521z"/>
		<path fill="#8AB5C5" d="M1676.56,224.196h61.204v157.261c0.781,13.692,5.771,25.433,14.93,35.195
			c9.2,9.791,21.989,15.077,38.426,15.844c12.492,0,24.491-2.044,36.016-6.135c11.523-4.113,21.692-9.828,30.475-17.253
			c8.81-7.423,15.749-16.274,20.794-26.604c5.095-10.328,7.64-21.546,7.64-33.622V240.672h-45.313v-16.476h61.787v205.96h43.563
			v14.686h-56.476l-1.195-31.189l-0.605-26.451c-7.825,18.826-20.418,33.809-37.806,45.014
			c-17.417,11.188-37.038,16.756-58.945,16.756c-21.103,0-37.809-6.051-50.111-18.17c-12.306-12.131-18.869-27.984-19.648-47.544
			V240.672h-44.732V224.196z"/>
		<path fill="#8AB5C5" d="M1928.405,428.366h42.942V20.029h-42.362V3.552h58.854v424.813h48.831v16.477h-108.265V428.366z"/>
		<path fill="#8AB5C5" d="M2070.803,80.628h16.477v143.568h71.199v16.476h-71.199v187.693h49.412v16.477h-65.889v-204.17h-51.807
			v-16.476h51.807V80.628z"/>
	</g>
	<g>
		<path fill="#8AB5C5" d="M569.856,343.56c1.641-5.639,0.232-11.974-4.215-16.42l-19.035-19.036
			c0.955-6.937,0.955-13.978-0.017-20.914l19.052-19.052c4.447-4.446,5.855-10.781,4.215-16.419l23.299-23.293
			c2.827-2.828,2.827-7.396,0.005-10.212l-1.155-1.161c-2.816-2.816-7.384-2.816-10.211,0.011l-23.288,23.288
			c-5.649-1.635-11.979-0.222-16.425,4.22l-9.021,9.02c-2.272-3.138-4.81-6.14-7.637-8.967L514.3,233.505l8.354-8.355
			c4.446-4.446,5.855-10.781,4.214-16.42l23.299-23.293c2.827-2.827,2.827-7.395,0.005-10.216l-1.155-1.156
			c-2.812-2.812-7.385-2.816-10.212,0.011l-23.287,23.288c-5.639-1.625-11.979-0.222-16.426,4.22l-8.354,8.355l-19.416-19.416
			l8.355-8.355c4.44-4.446,5.839-10.792,4.203-16.425l23.304-23.303c2.822-2.822,2.822-7.384-0.006-10.211l-1.148-1.15
			c-2.812-2.812-7.386-2.817-10.207,0l-23.293,23.298c-5.639-1.625-11.979-0.227-16.426,4.22l-8.354,8.355l-19.427-19.421
			l8.355-8.355c4.446-4.446,5.854-10.781,4.214-16.419l23.298-23.298c2.827-2.827,2.827-7.39,0.006-10.212l-1.155-1.155
			c-2.821-2.822-7.385-2.822-10.212,0.005l-23.288,23.293c-5.643-1.63-11.982-0.227-16.43,4.22l-8.35,8.355l-19.427-19.421
			l8.355-8.355c4.446-4.447,5.85-10.787,4.215-16.42l23.297-23.298c2.827-2.827,2.827-7.389,0.006-10.211l-1.155-1.156
			c-2.812-2.812-7.385-2.822-10.212,0.005l-23.292,23.293c-5.639-1.63-11.979-0.227-16.426,4.22l-8.355,8.355l-11.119-11.124
			c-2.821-2.817-5.828-5.364-8.967-7.638l9.021-9.019c4.446-4.447,5.854-10.776,4.22-16.41l23.298-23.292
			c2.827-2.827,2.817-7.4,0-10.223l-1.155-1.155c-2.816-2.812-7.384-2.822-10.211,0.005L343.56,25.41
			c-5.645-1.635-11.979-0.227-16.426,4.22l-19.052,19.052c-6.936-0.971-13.978-0.971-20.914-0.016l-19.031-19.031
			c-4.447-4.446-10.776-5.854-16.425-4.219L228.419,2.117c-2.822-2.817-7.39-2.817-10.206,0l-1.155,1.16
			c-2.812,2.812-2.822,7.385,0,10.201l23.292,23.298c-1.624,5.639-0.221,11.979,4.225,16.425l8.919,8.919
			c-3.191,2.3-6.229,4.874-9.099,7.743l-11.003,11.003l-8.244-8.244c-4.447-4.441-10.776-5.855-16.425-4.22l-23.298-23.298
			c-2.816-2.817-7.39-2.812-10.201,0l-1.149,1.15c-2.817,2.822-2.828,7.395-0.005,10.211l23.293,23.298
			c-1.625,5.639-0.222,11.979,4.225,16.425l8.239,8.245l-19.421,19.421l-8.245-8.239c-4.446-4.447-10.776-5.86-16.425-4.225
			l-23.298-23.298c-2.816-2.816-7.384-2.816-10.201,0.005l-1.161,1.155c-2.812,2.811-2.817,7.384,0,10.201l23.298,23.298
			c-1.625,5.638-0.221,11.978,4.225,16.425l8.239,8.244l-19.416,19.417l-8.244-8.245c-4.441-4.447-10.787-5.845-16.431-4.215
			l-23.298-23.292c-2.817-2.822-7.385-2.822-10.201,0l-1.161,1.155c-2.816,2.816-2.816,7.385,0,10.201l23.298,23.298
			c-1.635,5.649-0.222,11.979,4.22,16.425l8.245,8.244l-19.421,19.421l-8.244-8.239c-4.447-4.446-10.781-5.854-16.425-4.225
			L56.46,174.075c-2.816-2.822-7.384-2.822-10.201,0l-1.16,1.155c-2.812,2.812-2.812,7.379,0.011,10.196l23.293,23.298
			c-1.63,5.644-0.232,11.984,4.214,16.431l8.244,8.245l-11.225,11.224c-2.79,2.791-5.307,5.739-7.564,8.835l-8.877-8.877
			c-4.446-4.447-10.781-5.855-16.419-4.23l-23.298-23.298c-2.817-2.816-7.389-2.811-10.211,0.011l-1.155,1.155
			c-2.812,2.811-2.817,7.384,0,10.207l23.298,23.293c-1.63,5.638-0.227,11.983,4.219,16.425l18.852,18.852
			c-1.024,7.063-1.024,14.257-0.037,21.326l-18.82,18.819c-4.447,4.446-5.855,10.781-4.214,16.42L2.111,366.858
			c-2.817,2.816-2.812,7.39,0.01,10.211l1.145,1.15c2.822,2.816,7.39,2.816,10.206,0l23.298-23.298
			c5.639,1.641,11.968,0.232,16.415-4.214l8.788-8.788c2.284,3.134,4.827,6.14,7.648,8.956L80.74,362l-8.128,8.127
			c-4.447,4.447-5.85,10.793-4.214,16.421l-23.298,23.298c-2.817,2.816-2.812,7.39,0.011,10.212l1.149,1.149
			c2.817,2.816,7.385,2.816,10.201,0l23.298-23.298c5.628,1.635,11.968,0.232,16.415-4.214l8.133-8.135l19.427,19.428l-8.134,8.133
			c-4.446,4.447-5.85,10.787-4.214,16.415l-23.298,23.298c-2.816,2.816-2.811,7.39,0,10.201l1.161,1.16
			c2.816,2.817,7.384,2.817,10.201,0l23.298-23.298c5.638,1.641,11.974,0.232,16.42-4.214l8.128-8.128l19.426,19.421l-8.133,8.133
			c-4.447,4.446-5.85,10.787-4.215,16.415l-23.298,23.298c-2.817,2.822-2.812,7.395,0,10.206l1.161,1.155
			c2.816,2.817,7.374,2.812,10.195-0.01l23.298-23.293c5.639,1.64,11.984,0.242,16.43-4.199l8.134-8.134l19.416,19.417l-8.133,8.134
			c-4.447,4.445-5.855,10.775-4.214,16.419l-23.293,23.293c-2.822,2.822-2.812,7.395,0,10.206l1.155,1.156
			c2.817,2.816,7.385,2.816,10.201,0l23.298-23.299c5.639,1.646,11.973,0.232,16.42-4.215l8.128-8.128l11.125,11.124
			c2.828,2.822,5.823,5.359,8.956,7.644l-8.788,8.787c-4.446,4.447-5.854,10.776-4.214,16.42l-23.292,23.293
			c-2.822,2.822-2.822,7.385,0,10.207l1.155,1.154c2.822,2.822,7.384,2.822,10.206,0l23.293-23.292
			c5.638,1.64,11.974,0.227,16.42-4.221l18.825-18.824c7.073,0.997,14.258,0.991,21.33-0.021l18.847,18.846
			c4.446,4.447,10.781,5.845,16.42,4.221l23.299,23.292c2.816,2.822,7.395,2.822,10.217,0l1.149-1.149
			c2.817-2.816,2.812-7.39-0.01-10.212l-23.293-23.293c1.635-5.633,0.231-11.973-4.215-16.42l-8.889-8.882
			c3.097-2.264,6.051-4.769,8.841-7.56l11.229-11.224l8.239,8.238c4.446,4.447,10.782,5.845,16.42,4.215l23.298,23.299
			c2.816,2.821,7.4,2.821,10.218,0l1.149-1.15c2.821-2.817,2.811-7.39-0.006-10.212l-23.297-23.293
			c1.64-5.644,0.231-11.974-4.215-16.419l-8.244-8.245l19.426-19.422l8.239,8.24c4.447,4.446,10.775,5.849,16.42,4.214
			l23.298,23.298c2.816,2.817,7.401,2.817,10.212,0.006l1.155-1.155c2.821-2.817,2.812-7.39-0.006-10.212l-23.298-23.298
			c1.636-5.645,0.237-11.979-4.209-16.425l-8.238-8.239l19.415-19.421l8.244,8.244c4.447,4.446,10.776,5.839,16.415,4.214
			l23.298,23.298c2.816,2.817,7.401,2.817,10.213,0.006l1.154-1.156c2.822-2.821,2.812-7.395-0.006-10.211l-23.298-23.298
			c1.636-5.645,0.232-11.968-4.214-16.415l-8.244-8.244l19.427-19.427l8.243,8.245c4.446,4.446,10.776,5.839,16.415,4.214
			l23.298,23.298c2.822,2.816,7.4,2.816,10.223,0l1.145-1.149c2.822-2.822,2.812-7.396-0.005-10.212l-23.299-23.298
			c1.642-5.639,0.232-11.974-4.214-16.421l-8.239-8.238l10.998-11.003c2.875-2.874,5.438-5.918,7.743-9.104l8.925,8.926
			c4.445,4.446,10.775,5.838,16.42,4.214l23.293,23.298c2.821,2.816,7.399,2.816,10.211,0.006l1.155-1.156
			c2.822-2.821,2.816-7.395-0.005-10.211L569.856,343.56z M493.543,346.418L346.17,493.788
			c-26.821,26.826-70.475,26.826-97.307-0.011L101.496,346.409c-26.832-26.832-26.832-70.485-0.011-97.307l147.373-147.369
			c26.827-26.832,70.491-26.843,97.323-0.011l147.368,147.374C520.38,275.923,520.37,319.586,493.543,346.418z"/>
		<path fill="#8AB5C5" d="M485.821,256.824L338.454,109.45c-22.576-22.57-59.288-22.57-81.869,0.011L109.212,256.829
			c-22.565,22.565-22.57,59.287,0.005,81.863l147.368,147.367c22.57,22.57,59.303,22.57,81.869,0.005l147.367-147.368
			C508.402,316.116,508.392,279.394,485.821,256.824z M386.368,388.326c-27.191,27.186-76.261,44.043-110.983,15.871l-5.038-4.525
			l25.17-26.183l4.02,3.527l-1.008-1.007c18.129,14.605,46.58,3.265,62.921-13.075c18.873-18.873,28.937-50.078,10.809-68.207
			c-1.757-1.756-4.009-3.518-6.789-5.28c-16.351-10.323-36.728,5.549-56.105,21.394c-30.203,24.653-68.444,50.821-107.946,16.868
			l0.237,0.237c-12.833-10.817-21.631-25.661-23.9-43.025c-3.539-27.186,9.563-56.38,29.928-76.746
			c27.186-27.19,69.467-41.274,106.2-13.598l-24.147,26.178c-19.39-12.333-43.289-2.025-58.39,13.587
			c-11.562,12.084-20.619,29.185-18.614,45.288c1.007,8.064,5.543,15.106,12.063,20.64c19.384,16.868,41.532-0.76,62.172-17.865
			c27.175-21.13,63.416-44.792,98.382-23.398c4.531,3.006,9.321,6.778,12.85,10.306
			C432.163,303.277,418.054,356.635,386.368,388.326z"/>
	</g>
</g>
<g>
</g>
<g>
</g>
<g>
</g>
<g>
</g>
<g>
</g>
<g>
</g>
</svg>
