<?xml version="1.0" encoding="utf-8"?>
<!-- Generator: Adobe Illustrator 16.0.0, SVG Export Plug-In . SVG Version: 6.00 Build 0)  -->
<!DOCTYPE svg PUBLIC "-//W3C//DTD SVG 1.1//EN" "http://www.w3.org/Graphics/SVG/1.1/DTD/svg11.dtd">
<svg version="1.1" id="Warstwa_1" xmlns="http://www.w3.org/2000/svg" xmlns:xlink="http://www.w3.org/1999/xlink" x="0px" y="0px"
	 width="595.281px" height="595.422px" viewBox="0 0 595.281 595.422" enable-background="new 0 0 595.281 595.422"
	 xml:space="preserve">
<g>
	<g>
		<path fill="#FFFFFF" d="M569.958,343.704c1.641-5.639,0.232-11.975-4.215-16.42l-19.035-19.036
			c0.955-6.937,0.955-13.978-0.016-20.914l19.051-19.052c4.447-4.446,5.855-10.781,4.215-16.419l23.299-23.293
			c2.828-2.828,2.828-7.396,0.006-10.212l-1.154-1.161c-2.816-2.816-7.385-2.816-10.211,0.011l-23.289,23.288
			c-5.648-1.635-11.979-0.222-16.426,4.22l-9.02,9.02c-2.273-3.138-4.811-6.14-7.637-8.967l-11.125-11.119l8.354-8.355
			c4.447-4.446,5.855-10.781,4.215-16.42l23.299-23.293c2.826-2.827,2.826-7.395,0.006-10.216l-1.156-1.156
			c-2.813-2.812-7.385-2.816-10.211,0.011l-23.287,23.288c-5.639-1.625-11.98-0.222-16.426,4.22l-8.355,8.355l-19.416-19.416
			l8.355-8.355c4.439-4.446,5.84-10.792,4.203-16.425l23.305-23.303c2.822-2.822,2.822-7.384-0.006-10.211l-1.148-1.15
			c-2.813-2.812-7.387-2.817-10.207,0l-23.293,23.298c-5.639-1.625-11.979-0.227-16.426,4.22l-8.355,8.354l-19.426-19.421
			l8.355-8.354c4.445-4.446,5.854-10.781,4.213-16.419l23.299-23.298c2.826-2.827,2.826-7.39,0.006-10.212l-1.156-1.155
			c-2.82-2.822-7.385-2.822-10.211,0.005l-23.289,23.293c-5.643-1.63-11.98-0.227-16.43,4.22l-8.35,8.355l-19.427-19.421
			l8.354-8.355c4.446-4.447,5.851-10.787,4.215-16.42l23.297-23.298c2.828-2.827,2.828-7.389,0.007-10.211l-1.155-1.156
			c-2.813-2.812-7.385-2.822-10.212,0.005L386.65,68.542c-5.639-1.63-11.979-0.227-16.426,4.22l-8.355,8.355L350.75,69.993
			c-2.82-2.817-5.828-5.364-8.967-7.638l9.021-9.019c4.445-4.447,5.854-10.776,4.22-16.41l23.298-23.292
			c2.827-2.827,2.816-7.4,0-10.223l-1.154-1.155c-2.816-2.812-7.385-2.822-10.211,0.005l-23.293,23.292
			c-5.646-1.635-11.979-0.227-16.426,4.22l-19.053,19.052c-6.936-0.971-13.978-0.971-20.914-0.016L268.24,29.778
			c-4.447-4.446-10.776-5.854-16.425-4.219L228.521,2.261c-2.822-2.817-7.39-2.817-10.206,0l-1.155,1.16
			c-2.812,2.812-2.822,7.385,0,10.201l23.292,23.298c-1.624,5.639-0.221,11.979,4.225,16.425l8.919,8.919
			c-3.19,2.3-6.229,4.874-9.099,7.743L233.494,81.01l-8.244-8.244c-4.447-4.441-10.776-5.855-16.425-4.22l-23.298-23.298
			c-2.816-2.817-7.39-2.812-10.201,0l-1.149,1.15c-2.817,2.822-2.828,7.395-0.005,10.211l23.293,23.298
			c-1.625,5.639-0.222,11.979,4.225,16.425l8.239,8.245L190.507,124l-8.245-8.239c-4.446-4.447-10.776-5.86-16.425-4.225
			L142.54,88.237c-2.816-2.816-7.384-2.816-10.201,0.005l-1.161,1.155c-2.812,2.811-2.817,7.384,0,10.201l23.298,23.298
			c-1.625,5.638-0.221,11.978,4.225,16.425l8.239,8.244l-19.416,19.417l-8.244-8.245c-4.441-4.447-10.787-5.845-16.431-4.215
			L99.551,131.23c-2.817-2.822-7.385-2.822-10.201,0l-1.161,1.155c-2.816,2.816-2.816,7.385,0,10.201l23.298,23.298
			c-1.635,5.649-0.222,11.979,4.22,16.425l8.245,8.244l-19.421,19.421l-8.244-8.239c-4.447-4.446-10.781-5.854-16.425-4.225
			l-23.298-23.293c-2.816-2.822-7.384-2.822-10.201,0l-1.16,1.155c-2.812,2.812-2.812,7.379,0.011,10.196l23.293,23.298
			c-1.63,5.644-0.232,11.984,4.214,16.431l8.244,8.245L69.74,244.766c-2.79,2.791-5.307,5.739-7.564,8.835l-8.877-8.877
			c-4.446-4.447-10.781-5.855-16.419-4.23l-23.3-23.297c-2.817-2.816-7.389-2.812-10.211,0.011l-1.155,1.155
			c-2.812,2.811-2.817,7.384,0,10.207l23.298,23.293c-1.63,5.638-0.227,11.982,4.219,16.425l18.852,18.852
			c-1.024,7.063-1.024,14.257-0.037,21.326l-18.82,18.82c-4.447,4.445-5.855,10.781-4.214,16.42L2.213,367.002
			c-2.817,2.816-2.812,7.389,0.01,10.211l1.145,1.15c2.822,2.815,7.39,2.815,10.206,0l23.298-23.298
			c5.639,1.641,11.968,0.231,16.415-4.215l8.788-8.787c2.284,3.133,4.827,6.14,7.648,8.957l11.119,11.123l-8.128,8.129
			c-4.447,4.446-5.85,10.791-4.214,16.42L45.202,409.99c-2.817,2.815-2.812,7.39,0.011,10.212l1.149,1.148
			c2.816,2.816,7.385,2.816,10.201,0l23.298-23.298c5.628,1.636,11.968,0.232,16.415-4.214l8.133-8.134l19.427,19.427l-8.134,8.133
			c-4.446,4.447-5.85,10.787-4.214,16.415l-23.298,23.3c-2.816,2.815-2.811,7.39,0,10.2l1.161,1.16
			c2.816,2.817,7.384,2.817,10.201,0l23.298-23.298c5.638,1.641,11.974,0.232,16.42-4.214l8.128-8.128l19.426,19.421l-8.133,8.133
			c-4.447,4.446-5.85,10.787-4.215,16.415l-23.298,23.298c-2.817,2.822-2.812,7.396,0,10.206l1.161,1.155
			c2.816,2.817,7.374,2.812,10.195-0.01l23.298-23.293c5.639,1.64,11.984,0.241,16.43-4.199l8.134-8.134l19.416,19.417l-8.133,8.134
			c-4.447,4.445-5.854,10.774-4.214,16.419l-23.293,23.293c-2.822,2.822-2.812,7.395,0,10.206l1.155,1.156
			c2.817,2.815,7.385,2.815,10.201,0l23.298-23.3c5.639,1.646,11.973,0.232,16.42-4.215l8.128-8.128l11.125,11.124
			c2.828,2.822,5.823,5.359,8.956,7.644l-8.788,8.787c-4.446,4.447-5.854,10.776-4.214,16.42l-23.292,23.293
			c-2.822,2.822-2.822,7.386,0,10.207l1.155,1.154c2.822,2.822,7.384,2.822,10.206,0l23.293-23.292
			c5.638,1.64,11.974,0.228,16.42-4.221l18.825-18.824c7.073,0.997,14.258,0.991,21.33-0.021l18.848,18.846
			c4.445,4.447,10.78,5.845,16.42,4.221l23.299,23.292c2.815,2.822,7.395,2.822,10.217,0l1.148-1.148
			c2.817-2.816,2.813-7.391-0.01-10.212l-23.293-23.293c1.635-5.634,0.23-11.974-4.215-16.42l-8.889-8.883
			c3.096-2.264,6.051-4.769,8.84-7.56l11.229-11.224l8.239,8.237c4.445,4.447,10.781,5.845,16.42,4.215l23.298,23.3
			c2.815,2.82,7.399,2.82,10.218,0l1.149-1.15c2.821-2.817,2.812-7.391-0.007-10.212l-23.297-23.293
			c1.641-5.645,0.232-11.975-4.215-16.419l-8.244-8.245l19.427-19.422l8.239,8.239c4.447,4.446,10.775,5.85,16.42,4.215
			l23.297,23.298c2.816,2.816,7.402,2.816,10.213,0.006l1.154-1.155c2.822-2.816,2.813-7.39-0.006-10.212l-23.297-23.298
			c1.635-5.645,0.236-11.979-4.209-16.425l-8.238-8.239l19.414-19.421l8.244,8.244c4.447,4.446,10.777,5.839,16.416,4.214
			l23.297,23.298c2.816,2.817,7.402,2.817,10.213,0.006l1.154-1.156c2.822-2.82,2.813-7.395-0.006-10.211l-23.297-23.298
			c1.635-5.645,0.23-11.968-4.215-16.415l-8.244-8.244l19.428-19.427l8.242,8.245c4.445,4.447,10.775,5.839,16.416,4.214
			l23.297,23.298c2.822,2.816,7.4,2.816,10.223,0l1.146-1.148c2.82-2.822,2.811-7.396-0.006-10.212l-23.299-23.299
			c1.643-5.639,0.232-11.974-4.215-16.42l-8.238-8.238l10.998-11.004c2.875-2.875,5.438-5.918,7.742-9.104l8.926,8.925
			c4.445,4.447,10.775,5.839,16.42,4.214l23.293,23.299c2.82,2.815,7.398,2.815,10.211,0.005l1.154-1.156
			c2.822-2.822,2.816-7.396-0.004-10.211L569.958,343.704z M493.646,346.563L346.272,493.932
			c-26.821,26.826-70.475,26.826-97.307-0.011L101.598,346.552c-26.832-26.832-26.832-70.485-0.011-97.306L248.96,101.877
			c26.827-26.832,70.491-26.843,97.323-0.011L493.652,249.24C520.482,276.067,520.472,319.731,493.646,346.563z"/>
		<path fill="#FFFFFF" d="M485.923,256.968L338.557,109.594c-22.576-22.57-59.288-22.57-81.869,0.011L109.315,256.973
			c-22.565,22.565-22.57,59.287,0.005,81.862l147.368,147.368c22.57,22.569,59.304,22.569,81.869,0.005L485.923,338.84
			C508.505,316.26,508.494,279.538,485.923,256.968z M386.47,388.47c-27.189,27.187-76.26,44.043-110.982,15.871l-5.038-4.524
			l25.17-26.184l4.02,3.528l-1.008-1.007c18.129,14.604,46.58,3.265,62.92-13.076c18.873-18.873,28.938-50.077,10.811-68.207
			c-1.758-1.756-4.01-3.518-6.789-5.28c-16.352-10.323-36.729,5.549-56.105,21.395c-30.203,24.653-68.444,50.82-107.946,16.867
			l0.237,0.237c-12.833-10.817-21.631-25.661-23.9-43.025c-3.539-27.186,9.563-56.38,29.928-76.746
			c27.186-27.19,69.467-41.274,106.201-13.598L289.839,220.9c-19.39-12.333-43.289-2.025-58.39,13.587
			c-11.563,12.084-20.619,29.185-18.614,45.288c1.007,8.064,5.543,15.106,12.063,20.64c19.384,16.868,41.532-0.76,62.172-17.865
			c27.175-21.13,63.416-44.792,98.382-23.398c4.53,3.006,9.32,6.778,12.85,10.306C432.265,303.421,418.156,356.78,386.47,388.47z"/>
	</g>
</g>
</svg>
