<svg width="240" height="53" viewbox="0 0 240 53" xmlns="http://www.w3.org/2000/svg"><g fill-rule="nonzero" fill="none"><path fill="#604684" d="M64.426 15.06h6.501l3.638 14.74 4.21-14.74h4.75l4.21 14.74 3.673-14.74h6.47L91.31 38.457h-6.369l-3.773-13.204-3.773 13.204h-6.367zM95.706 30.1c0-4.982 4.008-8.826 8.994-8.826 5.02 0 8.994 3.844 8.994 8.825 0 4.98-3.975 8.824-8.994 8.824-4.952 0-8.994-3.843-8.994-8.824zm12.396 0c0-2.073-1.448-3.477-3.402-3.477-1.92 0-3.369 1.404-3.369 3.476s1.448 3.476 3.369 3.476c1.953 0 3.402-1.403 3.402-3.476zM125.98 21.408v6.15c-2.223-.333-5.052.67-5.052 3.979v6.919h-5.592V21.742h5.592v3.109c.673-2.273 2.796-3.443 5.053-3.443zM127.556 14.054h5.592v24.399h-5.592zM152.694 15.06v23.398h-5.592V36.92c-1.078 1.27-2.628 2.006-4.784 2.006-4.514 0-7.916-3.81-7.916-8.825 0-5.014 3.402-8.825 7.916-8.825 2.156 0 3.706.736 4.784 2.006V15.06h5.592zM147.102 30.1c0-2.172-1.448-3.644-3.537-3.644-2.09 0-3.537 1.471-3.537 3.644 0 2.174 1.448 3.644 3.537 3.644s3.537-1.473 3.537-3.646v.002zM164.654 30.901h-2.156v7.554h-6.027V15.06h9.429c4.784 0 8.489 3.376 8.489 8.09 0 2.874-1.583 5.314-4.008 6.654l4.85 8.657h-6.466l-4.111-7.559zm-2.156-5.078h3.334c1.483.033 2.527-1.036 2.527-2.607 0-1.538-1.044-2.641-2.527-2.641h-3.334v5.248z"/><path d="M184.021 34.177c1.213 0 2.257-.401 3.065-1.168l4.043 2.809c-1.684 2.106-4.245 3.108-7.243 3.108-5.828 0-9.432-3.844-9.432-8.79 0-5.015 3.705-8.859 8.96-8.859 5.053 0 8.691 3.777 8.691 8.791a8.691 8.691 0 0 1-.235 2.072h-11.622c.674 1.603 2.156 2.037 3.773 2.037zm2.626-5.883c-.505-1.738-1.82-2.34-3.166-2.34-1.617 0-2.83.803-3.302 2.34h6.468zM219.688 28.227v10.229h-5.625v-9.594c0-1.437-.674-2.34-2.088-2.34-1.583 0-2.325 1.137-2.325 2.808v9.126h-5.591v-9.594c0-1.437-.706-2.34-2.123-2.34-1.549 0-2.324 1.137-2.324 2.808v9.126h-5.591V21.742h5.591v1.571c.91-1.203 2.392-2.039 4.548-2.039 1.988 0 3.402.769 4.312 2.14 1.044-1.27 2.56-2.14 4.882-2.14 3.875 0 6.334 2.608 6.334 6.953zM221.372 18.324c-1.018-2.642 1.66-5.168 4.294-4.076.78.324 1.396.943 1.715 1.72 1.064 2.64-1.654 5.285-4.314 4.122a3.208 3.208 0 0 1-1.695-1.766zm.217 3.418h5.592v16.713h-5.593V21.742zM236.493 27.057v4.845c0 1.57 1.246 1.671 3.503 1.538v5.014c-6.872.835-9.095-1.27-9.095-6.421v-4.976h-1.946v-5.315h1.946v-3.005l5.592-1.671v4.68h3.503v5.314l-3.503-.003zM29.968.025L10.15 5.48.025 23.244l5.498 19.664 17.901 10.048L43.242 47.5l10.126-17.763-5.499-19.665z" fill="#604684"/><path d="M23.446 17.683l-.153-.007-2.577 7.501-.312.911c-.1.288-.1.6 0 .889l2.51 7.307c.131.384.427.69.808.838l.485.175 2.588-7.53.353-1.027a1.343 1.343 0 0 0 0-.876l-2.507-7.27a1.362 1.362 0 0 0-1.195-.91zM41.204 17.182h-5.426a.728.728 0 0 0-.69.49l-2.52 7.335-.207.606c-.151.439-.151.915 0 1.353l2.717 7.91a.67.67 0 0 0 .678.449c.079-.005.162-.018.243-.024l5.895-17.16a.719.719 0 0 0-.097-.656.73.73 0 0 0-.593-.303z" fill="#FFF" opacity=".7"/><path d="M23.511 35.798h-5.425a.728.728 0 0 1-.69-.49l-5.897-17.169a.719.719 0 0 1 .097-.654.73.73 0 0 1 .593-.303h5.425c.312 0 .59.197.69.49l5.897 17.17c.076.22.04.464-.097.653a.73.73 0 0 1-.593.303zM35.306 35.798h-5.424a.728.728 0 0 1-.69-.49l-5.898-17.169a.719.719 0 0 1 .097-.654.73.73 0 0 1 .593-.303h5.428c.312 0 .59.197.69.49l5.897 17.17a.719.719 0 0 1-.098.654.73.73 0 0 1-.595.302z" fill="#FFF"/></g></svg>