<?xml version="1.0" encoding="utf-8"?>
<!-- Generator: Adobe Illustrator 16.0.0, SVG Export Plug-In . SVG Version: 6.00 Build 0)  -->
<!DOCTYPE svg PUBLIC "-//W3C//DTD SVG 1.1//EN" "http://www.w3.org/Graphics/SVG/1.1/DTD/svg11.dtd">
<svg version="1.1" id="Layer_1" xmlns="http://www.w3.org/2000/svg" xmlns:xlink="http://www.w3.org/1999/xlink" x="0px" y="0px"
	 width="522.413px" height="122.634px" viewBox="0 0 522.413 122.634" enable-background="new 0 0 522.413 122.634"
	 xml:space="preserve">
<g>
	<path d="M504.171,74.743v4.494l1.971,0.613l-2.463,6.957c-1.232,3.447-2.217,7.385-2.586,10.957h-0.43
		c-0.309-4.002-0.924-7.818-2.217-11.697l-2.031-6.217l1.971-0.613v-4.494h-12.496v4.494l2.709,0.613l7.756,23.084h1.539
		l-1.17,3.322c-0.984,2.895-2.154,3.939-5.17,3.939c-1.109,0-2.461-0.123-3.879-0.369l-0.738,5.416
		c1.602,0.309,3.57,0.615,5.416,0.615c5.848,0,8.557-2.768,10.711-8.678l9.91-27.33l2.77-0.615v-4.492H504.171L504.171,74.743z
		 M475.428,97.888c-5.109,0-5.971-3.016-5.971-9.418c0-6.094,0.799-8.678,5.416-8.678c0.924,0,1.848,0.123,2.586,0.244l0.492,3.264
		h5.416l0.246-8.064c-2.461-0.613-6.031-1.107-9.047-1.107c-10.219,0-12.682,6.033-12.682,14.836c0,8.801,2.402,14.586,12.25,14.586
		c3.57,0,7.51-0.799,10.156-1.662l-1.293-5.23C480.292,97.396,477.583,97.888,475.428,97.888L475.428,97.888z M449.272,78.005
		l-0.615-3.262h-8.74v4.494l2.523,0.613v17.975l-2.523,0.615v4.494h13.479v-4.494l-3.447-0.615V82.868
		c1.971-1.477,4.492-2.154,6.895-2.154c0.799,0,1.539,0.061,2.031,0.184l0.125-6.461c-0.494-0.125-1.109-0.186-1.971-0.186
		C454.073,74.253,451.61,75.605,449.272,78.005L449.272,78.005z M422.993,97.888c-4.678,0-5.047-3.447-5.047-8.863
		c0-5.971,0.432-9.232,4.986-9.232c4.678,0,5.047,3.447,5.047,8.863C427.979,94.626,427.55,97.888,422.993,97.888L422.993,97.888z
		 M422.993,74.128c-9.971,0-12.619,5.416-12.619,14.836c0,9.23,2.586,14.586,12.496,14.586c10.033,0,12.682-5.416,12.682-14.834
		C435.552,79.484,432.966,74.128,422.993,74.128L422.993,74.128z M403.854,74.743h-10.033v4.494l2.523,0.613v17.975l-2.523,0.615
		v4.494h12.555v-4.494l-2.523-0.615V74.743H403.854z M403.854,61.202h-7.51v8.064h7.51V61.202L403.854,61.202z M376.714,98.134
		c-1.047,0-2.525-0.184-3.939-0.43V80.837c1.354-0.615,2.77-0.984,4.186-0.984c4.002,0,4.861,2.77,4.861,8.926
		C381.821,95.857,380.714,98.134,376.714,98.134L376.714,98.134z M379.298,74.128c-2.338,0-4.492,0.555-6.523,1.602V61.202h-10.035
		v4.492l2.523,0.617v35.885c3.879,0.801,8.373,1.354,11.572,1.354c10.527,0,12.557-6.277,12.557-15.08
		C389.393,81.392,388.04,74.128,379.298,74.128L379.298,74.128z M343.233,86.316c0.125-4.678,1.232-6.586,4.678-6.586
		c3.816,0,4.309,2.4,4.309,6.586H343.233L343.233,86.316z M348.096,74.128c-9.48,0-12.374,5.725-12.374,14.773
		c0,8.555,2.463,14.588,12.743,14.588c1.17,0,2.277-0.186,3.322-0.369l0.062,0.184c-3.939,2.646-5.354,5.479-5.354,7.756
		c0,2.646,1.969,4.801,6.275,4.801c1.295,0,2.955-0.186,4.494-0.738v-3.633c-0.861,0.246-1.6,0.369-2.154,0.369
		c-1.602,0-2.031-0.861-2.031-1.969c0-1.662,1.109-4.74,5.539-8.064l-1.17-5.047c-3.076,0.801-5.908,1.17-7.877,1.17
		c-4.986,0-6.217-2.34-6.342-6.771h16.004v-4.432C359.237,78.991,356.837,74.128,348.096,74.128L348.096,74.128z M329.263,74.743
		h-10.035v4.494l2.524,0.613v17.975l-2.524,0.615v4.494h12.558v-4.494l-2.525-0.615V74.743H329.263z M329.263,61.202h-7.51v8.064
		h7.51V61.202L329.263,61.202z M305.693,85.64c-3.57-0.984-4.862-1.479-4.862-3.387c0-1.783,1.292-2.83,4.616-2.83
		c0.924,0,1.908,0.123,2.769,0.309l0.494,3.014h5.354l0.185-7.078c-2.77-0.799-6.033-1.539-9.417-1.539
		c-5.971,0-11.511,2.279-11.511,8.68c0,6.094,4.616,7.51,9.849,8.926c3.447,0.924,4.861,1.539,4.861,3.57
		c0,2.277-2.092,2.953-4.801,2.953c-1.417,0-2.708-0.184-3.816-0.43l-0.554-2.955h-5.354l-0.185,7.078
		c2.339,0.803,6.34,1.602,10.155,1.602c6.833,0,12.066-2.645,12.066-8.863C315.542,88.347,310.74,86.993,305.693,85.64
		L305.693,85.64z M279.414,96.718c-1.722,0.801-3.322,1.17-4.492,1.17c-3.693,0-4.616-2.832-4.616-8.803
		c0-6.895,1.23-9.295,4.801-9.295c1.107,0,2.523,0.246,4.307,0.801V96.718L279.414,96.718z M286.924,61.202H276.89v4.492
		l2.523,0.617v9.109c-1.662-0.799-3.938-1.293-6.155-1.293c-7.755,0-10.526,6.094-10.526,15.205c0,6.77,1.417,14.217,9.85,14.217
		c2.894,0,5.354-0.861,7.511-2.031l0.244,1.418h9.111v-4.494l-2.525-0.615V61.202L286.924,61.202z M241.995,86.316
		c0.124-4.678,1.232-6.586,4.678-6.586c3.816,0,4.308,2.4,4.308,6.586H241.995L241.995,86.316z M246.796,74.128
		c-9.48,0-12.311,5.787-12.311,15.02c0,8.309,2.585,14.402,12.741,14.402c3.324,0,6.956-0.613,10.156-1.537l-1.108-5.232
		c-3.14,0.801-5.971,1.17-8.002,1.17c-4.925,0-6.156-2.34-6.279-6.771h16.004v-4.432C257.999,78.991,255.598,74.128,246.796,74.128
		L246.796,74.128z M225.256,97.273h-8.433l13.972-17.975v-4.555h-23.144v8.494h5.232l0.554-2.83h7.818L207.282,98.38v4.557h23.698
		v-8.494h-5.232L225.256,97.273L225.256,97.273z M194.606,78.005l-0.614-3.262h-8.743v4.494l2.524,0.613v17.975l-2.524,0.615v4.494
		h13.48v-4.494l-3.448-0.615V82.868c1.971-1.477,4.493-2.154,6.895-2.154c0.801,0,1.539,0.061,2.031,0.184l0.124-6.461
		c-0.494-0.125-1.108-0.186-1.971-0.186C199.406,74.253,196.944,75.605,194.606,78.005L194.606,78.005z M167.158,81.144h-7.448
		V67.296h7.325c4.062,0,6.094,1.354,6.094,6.957C173.129,79.913,171.097,81.144,167.158,81.144L167.158,81.144z M167.589,61.202
		h-18.836v4.492l2.832,0.617v31.514l-2.832,0.617v4.492h14.466v-4.492l-3.509-0.617V87.302h7.694c9.417,0,13.912-3.879,13.912-13.42
		C181.316,63.603,175.9,61.202,167.589,61.202L167.589,61.202z M363.973,35.413c-0.799-1.354-1.291-1.971-2.338-2.463l5.232-7.754
		l2.77-0.615v-4.494h-7.264l-6.771,11.018h-2.338V6.545h-10.035v4.493l2.525,0.615v31.515l-2.525,0.615v4.496h12.496v-4.496
		l-2.461-0.615v-6.523h1.291c1.354,0,1.785,0.184,2.771,1.971l5.354,9.664h8.434v-4.494l-2.77-0.615L363.973,35.413L363.973,35.413z
		 M337.324,6.545h-7.509v8.064h7.509V6.545L337.324,6.545z M337.324,20.086h-10.033v4.493l2.524,0.615v17.974l-2.524,0.615v4.494
		h12.556v-4.494l-2.523-0.615L337.324,20.086L337.324,20.086z M321.325,28.026c0-4.8-2.092-8.556-7.878-8.556
		c-3.14,0-6.34,1.107-9.171,2.524l-0.309-1.908h-8.741v4.493l2.524,0.615v17.974l-2.524,0.615v4.494h12.557v-4.494l-2.524-0.615
		V26.672c1.847-0.8,3.693-1.416,5.295-1.416c2.523,0,3.262,1.354,3.262,4.37v18.652h10.279v-4.494l-2.771-0.615L321.325,28.026
		L321.325,28.026z M281.567,42.06c-1.724,0.801-3.324,1.17-4.494,1.17c-3.692,0-4.615-2.83-4.615-8.803
		c0-6.894,1.23-9.294,4.8-9.294c1.108,0,2.524,0.246,4.309,0.799V42.06L281.567,42.06z M289.076,6.545h-10.033v4.493l2.524,0.615
		v9.11c-1.662-0.799-3.94-1.292-6.157-1.292c-7.754,0-10.525,6.093-10.525,15.204c0,6.77,1.416,14.217,9.849,14.217
		c2.893,0,5.355-0.859,7.509-2.031l0.247,1.418h9.11v-4.494l-2.524-0.615V6.545L289.076,6.545z M251.288,42.122
		c-1.354,0.861-3.079,1.354-4.616,1.354c-2.401,0-3.693-1.354-3.693-3.756c0-2.645,1.416-3.691,4.924-3.691
		c0.923,0,2.523,0.061,3.385,0.123V42.122L251.288,42.122z M258.673,28.949c0-7.325-4.124-9.479-11.387-9.479
		c-3.2,0-6.402,0.43-9.541,1.107l0.678,5.355c2.523-0.492,4.924-0.861,7.447-0.861c4.309,0,5.417,1.168,5.417,4.123v2.341
		c-1.108-0.125-3.447-0.246-5.047-0.246c-6.956,0-10.711,2.893-10.711,8.924c0,5.602,3.509,8.68,8.802,8.68
		c3.264,0,5.848-1.17,7.818-2.4l0.369,1.787h8.495v-4.496l-2.34-0.615V28.949L258.673,28.949z M222.977,23.348l-0.616-3.263h-8.74
		v4.493l2.523,0.615v17.974l-2.523,0.615v4.494h13.479v-4.494l-3.447-0.615V28.21c1.969-1.477,4.493-2.154,6.895-2.154
		c0.8,0,1.538,0.061,2.031,0.184l0.123-6.461c-0.492-0.124-1.108-0.185-1.97-0.185C227.779,19.594,225.316,20.948,222.977,23.348
		L222.977,23.348z M196.698,43.23c-4.677,0-5.046-3.447-5.046-8.863c0-5.971,0.43-9.232,4.985-9.232
		c4.679,0,5.048,3.447,5.048,8.863C201.685,39.968,201.253,43.23,196.698,43.23L196.698,43.23z M196.698,19.471
		c-9.972,0-12.618,5.416-12.618,14.835c0,9.23,2.585,14.586,12.496,14.586c10.033,0,12.68-5.416,12.68-14.834
		C209.257,24.826,206.671,19.471,196.698,19.471L196.698,19.471z M167.158,26.487h-7.448V12.639h7.325
		c4.062,0,6.094,1.354,6.094,6.956C173.129,25.257,171.097,26.487,167.158,26.487L167.158,26.487z M167.589,6.545h-18.836v4.493
		l2.832,0.615v31.515l-2.832,0.615v4.496h14.466v-4.496l-3.509-0.615V32.644h7.694c9.417,0,13.91-3.878,13.91-13.418
		C181.315,8.946,175.898,6.545,167.589,6.545L167.589,6.545z"/>
</g>
<rect x="-0.028" y="0" fill="#228DCE" width="108.3" height="108.3"/>
<path fill="#FFFFFF" d="M60.208,69.113h-12.5c-1.042,0-1.888-0.846-1.889-1.889c0-1.992-1.215-3.465-2.754-5.334
	c-2.187-2.654-4.909-5.955-4.909-11.906c0-10.814,9.45-14.74,15.802-14.74c6.353,0,15.802,3.926,15.802,14.74
	c0,5.951-2.723,9.252-4.91,11.906c-1.54,1.869-2.755,3.342-2.755,5.334C62.095,68.267,61.25,69.113,60.208,69.113z M49.39,65.337
	h9.134c0.529-2.348,1.988-4.121,3.409-5.844c1.99-2.414,4.048-4.914,4.048-9.51c0-8.676-7.866-10.967-12.023-10.967
	s-12.025,2.291-12.025,10.967c0,4.596,2.058,7.096,4.048,9.51C47.402,61.216,48.863,62.99,49.39,65.337z M66.768,35.921
	c-1.043,0-1.888-0.846-1.887-1.891c0-0.326,0.086-0.65,0.249-0.934l4.465-7.774c0.51-0.909,1.661-1.232,2.57-0.722
	c0.909,0.51,1.232,1.66,0.722,2.57c-0.005,0.008-0.011,0.018-0.016,0.026l-4.462,7.776C68.071,35.56,67.445,35.921,66.768,35.921z
	 M73.813,44.343c-1.042,0-1.887-0.844-1.888-1.885c0-0.664,0.347-1.279,0.916-1.621l7.44-4.455c0.888-0.547,2.049-0.27,2.595,0.619
	c0.545,0.887,0.268,2.049-0.62,2.594c-0.011,0.006-0.021,0.014-0.032,0.02l-7.44,4.459C74.491,44.251,74.156,44.343,73.813,44.343
	L73.813,44.343z M54.163,32.032c-1.042,0.002-1.888-0.842-1.89-1.885l0,0V21.85c0-1.043,0.846-1.889,1.89-1.889
	s1.889,0.846,1.889,1.889v8.297C56.052,31.189,55.206,32.034,54.163,32.032L54.163,32.032z M41.673,35.921
	c-0.646,0.002-1.249-0.328-1.596-0.875l-4.663-7.332c-0.558-0.881-0.297-2.047,0.583-2.605c0.88-0.559,2.046-0.297,2.605,0.583
	l4.663,7.331c0.558,0.879,0.298,2.045-0.581,2.605C42.382,35.82,42.031,35.921,41.673,35.921L41.673,35.921z M34.527,44.343
	c-0.338,0-0.67-0.092-0.961-0.264l-7.539-4.459c-0.901-0.525-1.206-1.68-0.682-2.58c0.524-0.9,1.679-1.205,2.58-0.682
	c0.009,0.006,0.018,0.012,0.027,0.016l7.539,4.457c0.897,0.531,1.194,1.688,0.664,2.586C35.814,43.991,35.196,44.343,34.527,44.343
	L34.527,44.343z M60.448,76.638H47.875c-1.042,0-1.886-0.846-1.886-1.887s0.845-1.887,1.886-1.887l0,0h12.573
	c1.042,0,1.886,0.846,1.886,1.887S61.49,76.638,60.448,76.638L60.448,76.638z M60.448,82.339H47.875
	c-1.042,0-1.886-0.844-1.886-1.885s0.845-1.887,1.886-1.887l0,0h12.573c1.042,0,1.886,0.846,1.886,1.887S61.49,82.339,60.448,82.339
	L60.448,82.339z"/>
</svg>
